<?xml version="1.0" encoding="utf-8"?>
<!-- Generator: Adobe Illustrator 23.0.6, SVG Export Plug-In . SVG Version: 6.00 Build 0)  -->
<svg version="1.1" id="Layer_1" xmlns="http://www.w3.org/2000/svg" xmlns:xlink="http://www.w3.org/1999/xlink" x="0px" y="0px"
	 viewBox="0 0 198 122" style="enable-background:new 0 0 198 122;" xml:space="preserve">
<style type="text/css">
	.st0{fill:#0F0E17;}
</style>
<g>
	<path class="st0" d="M80.7,3.1v62.6c0,18.9-10,35.5-25,44.8c-1.1,0.7-2.2,1.3-3.3,1.9c-7.3,3.8-15.5,5.9-24.3,5.9h-25v0
		c0-2,0.2-4,0.7-5.9c2.6-11,12.5-19.1,24.3-19.1c15.2,0,27.6-12.3,27.6-27.6V28.1c0-2.3,0.3-4.5,0.9-6.7
		C59.5,10.9,69.2,3.1,80.7,3.1L80.7,3.1z"/>
	<path class="st0" d="M142.7,13.1c-10.1,0-19.5,2.9-27.6,7.8c-0.3,0.2-0.6,0.4-0.9,0.6c-2.9-10.6-12.6-18.3-24.1-18.3c0,0,0,0,0,0
		v62.6c0,18.9,10,35.5,25,44.8c8,5,17.5,7.8,27.6,7.8c29,0,52.6-23.5,52.6-52.6S171.8,13.1,142.7,13.1z M142.7,93.3
		c-15.2,0-27.6-12.3-27.6-27.6c0-15.2,12.3-27.6,27.6-27.6s27.6,12.3,27.6,27.6C170.3,80.9,158,93.3,142.7,93.3z"/>
</g>
</svg>
