<?xml version="1.0" encoding="utf-8"?>
<!-- Generator: Adobe Illustrator 23.0.6, SVG Export Plug-In . SVG Version: 6.00 Build 0)  -->
<svg version="1.1" id="Layer_1" xmlns="http://www.w3.org/2000/svg" xmlns:xlink="http://www.w3.org/1999/xlink" x="0px" y="0px"
	 viewBox="0 0 471 124" style="enable-background:new 0 0 471 124;" xml:space="preserve">
<style type="text/css">
	.st0{opacity:0.98;}
	.st1{fill:#0F0E17;}
</style>
<g class="st0">
	<path class="st1" d="M79.9,15.5v50.9c0,15.4-8.1,28.9-20.4,36.4c-0.9,0.5-1.8,1-2.7,1.5c-5.9,3.1-12.6,4.8-19.7,4.8H16.8l0,0
		c0-1.7,0.2-3.3,0.6-4.8c2.1-8.9,10.1-15.4,19.6-15.5c12.4-0.1,22.6-10,22.6-22.4V35.9c0-1.9,0.3-3.7,0.7-5.4
		C62.6,21.9,70.5,15.5,79.9,15.5L79.9,15.5z"/>
	<path class="st1" d="M133,23.7c-9.2-0.6-17.8,1.8-25.1,6.3c-0.2,0.1-0.5,0.3-0.7,0.5c-2.4-8.6-10.2-14.9-19.6-14.9l0,0v50.9
		c0,1.2,0,2.3,0.1,3.5c1.1,13.9,8.9,26,20.2,33c6.5,4,14.2,6.4,22.4,6.4c24.7,0,44.6-21,42.7-46.2C171.4,41.9,154.1,25,133,23.7z
		 M132.1,88.8c-11.5,0.9-21.3-6.9-23.7-17.4c-0.4-1.6-0.5-3.2-0.5-4.9c0-1.2,0.1-2.4,0.3-3.5c1.7-10.7,11-18.9,22.1-18.9
		c12.9,0,23.2,10.9,22.4,23.9C152,78.9,143.1,87.9,132.1,88.8z"/>
	<path class="st1" d="M453.6,66.3c0-8.2-2.3-15.8-6.2-22.3c-3.6-5.9-8.5-10.8-14.4-14.4c-6.5-4-14.1-6.2-22.3-6.2
		c-8.3,0-16,2.3-22.6,6.4c-5.8,3.6-10.6,8.4-14.1,14.2c-4,6.5-6.2,14.1-6.2,22.3c0,8.3,2.3,16,6.4,22.6c3.5,5.7,8.3,10.5,13.9,14
		c6.6,4.1,14.3,6.4,22.6,6.4c8.2,0,15.8-2.3,22.3-6.2c1.3-0.8,2.5-1.6,3.6-2.5c3.7,5.4,9.9,8.9,17,8.8l0,0V68.5c0,0,0,0-0.1,0
		C453.6,67.8,453.6,67.1,453.6,66.3z M410.6,88.9c-12.9,0-23.2-10.9-22.4-23.9c0.7-11.2,9.8-20.2,21-20.9c13-0.8,23.8,9.5,23.8,22.4
		C433,78.8,423,88.9,410.6,88.9z"/>
	<path class="st1" d="M355.5,54.4l-15.6,8.8l0,0l-0.2,0.1l-0.2,0.1l-1.7,1l-25.2,14.3l-9.2,5.2l-8.5,4.8h-0.1l0,0h0.1H360v0.1
		c0,11.3-9.1,20.4-20.4,20.5c-0.1,0-0.1,0-0.2,0h-44.8c-11.3,0-20.5-9.2-20.5-20.5v-0.1c0-2.1,0.3-4.1,0.9-6c0-0.1,0.1-0.2,0.1-0.3
		c0.6-1.6,1.7-2.9,3.1-3.8l0,0l0.5-0.3l15.6-8.8l0,0l0.2-0.1l0.2-0.1l1.7-1L321.7,54l9.2-5.2l8.5-4.8h0.1l0,0h-0.1h-65.1v-0.1
		c0-11.3,9.1-20.4,20.4-20.5c0.1,0,0.1,0,0.2,0h44.8c11.3,0,20.5,9.2,20.5,20.5V44c0,2.1-0.3,4.1-0.9,6c0,0.1-0.1,0.2-0.1,0.3
		c-0.6,1.6-1.7,2.9-3.1,3.8l0,0L355.5,54.4z"/>
	<path class="st1" d="M266.6,66.3v28.5c0,8-6.5,14.5-14.5,14.5h-6c-0.1,0-0.1-0.1-0.1-0.1V67c0-12.5-10.2-23.1-22.7-23
		c-11.1,0.1-20.2,8.3-21.9,18.9l0,0c-0.1,0.3-0.1,0.6-0.1,0.9c0,0.2-0.1,0.5-0.1,0.7c0,0.3,0,0.5-0.1,0.7l0,0c0,0.4,0,0.8,0,1.1V109
		c0,0.1-0.1,0.1-0.1,0.1h-6c-7.8,0-14.2-6.4-14.2-14.2V15.5l0,0c9.3,0,17.1,6.2,19.6,14.8c0.3-0.2,0.5-0.3,0.8-0.5
		c6.6-4.1,14.3-6.4,22.6-6.4c8.2,0,15.8,2.3,22.3,6.2c5.9,3.6,10.8,8.5,14.4,14.4C264.3,50.5,266.6,58.1,266.6,66.3z"/>
</g>
</svg>
